<svg width="556" height="556" viewBox="0 0 556 556" fill="none" xmlns="http://www.w3.org/2000/svg">
<path d="M539.309 185.27C534.259 171.05 528.139 157.52 521.099 144.69L367.689 231.74C370.059 236.13 372.129 240.74 373.849 245.59C379.409 261.24 380.739 277.36 378.449 292.72L551.359 324.54C559.109 279.29 555.749 231.52 539.309 185.27Z" fill="#29C3F1"/>
<path d="M499.474 256.81V253.06C499.474 253.06 498.874 253.11 498.574 252.98C497.754 252.64 497.754 251.23 498.574 250.89C498.914 250.75 501.904 250.74 502.404 250.8C503.164 250.9 503.564 251.72 503.254 252.42C502.894 253.26 501.864 252.98 501.864 253.06V256.81C502.714 256.79 504.364 257.05 504.784 256.06C505.274 254.89 504.064 251.03 505.834 250.8C506.994 250.65 509.274 250.56 508.734 252.35C508.464 253.24 507.324 253 507.264 253.06C507.114 253.2 507.424 255.98 506.894 257.12C506.464 258.04 505.044 259.21 504.034 259.21H501.854C501.904 259.53 501.774 261.22 501.854 261.3C502.014 261.46 503.264 261.21 503.344 262.44C503.394 263.28 502.834 263.65 502.084 263.71C501.194 263.79 498.554 263.93 498.114 263.16C497.144 261.44 499.304 261.43 499.444 261.29C499.534 261.2 499.394 259.52 499.444 259.2H497.264C496.274 259.2 494.804 258.04 494.364 257.15C493.824 256.06 494.184 253.19 494.034 253.05C493.964 252.98 493.114 253.24 492.704 252.66C492.094 251.79 492.604 250.89 493.654 250.79C497.574 250.43 495.984 252.46 496.284 255.22C496.494 257.15 497.924 256.78 499.434 256.79L499.474 256.81Z" fill="white"/>
<path d="M458.434 215.02C458.694 214.97 459.814 215.09 459.894 215.02C459.934 214.98 460.014 214.14 460.124 213.86C461.594 209.97 466.924 212.83 469.824 213.11C472.504 213.37 474.904 212.78 476.994 211.07C478.024 210.22 478.564 208.79 480.114 209.28C481.664 209.77 483.844 211.18 484.544 212.63C484.804 213.18 485.074 214.94 485.164 215.02C485.284 215.12 486.334 214.98 486.614 215.04V208.66C486.614 208.08 486.094 206.2 485.884 205.57C485.504 204.44 483.824 202.25 484.924 201.39C486.094 200.48 486.914 202.1 487.324 202.95C488.194 204.74 488.824 207.11 488.954 209.1C489.024 210.2 488.764 215.56 489.094 216.01C489.204 216.16 489.494 216.22 489.614 216.37C492.964 220.29 489.894 225.18 484.994 224.44C484.914 228.79 482.564 232.09 479.114 234.49C478.964 234.59 478.584 234.7 478.564 234.74C478.484 234.87 478.494 237.49 478.564 237.7C483.194 241.28 490.114 239.75 494.344 244.09C497.154 243.01 499.954 242.55 502.924 243.27C503.934 243.51 505.174 243.78 504.734 245.14C504.294 246.5 502.094 245.38 501.054 245.28C489.524 244.24 484.704 259.48 494.524 265.17C504.574 270.99 515.374 258.93 508.534 249.55C507.904 248.68 506.314 247.66 507.154 246.56C508.384 244.94 510.644 248.43 511.194 249.38C515.934 257.65 510.674 267.77 501.354 268.9H448.664C447.944 268.91 447.664 268.26 447.574 267.64C447.384 266.23 447.384 261.74 447.574 260.33C447.694 259.43 448.244 258.8 449.214 259.1C449.344 259.14 449.904 259.68 449.904 259.73V266.7H455.774V258.26C455.774 257.64 457.074 257.17 457.674 257.68C457.754 257.75 458.114 258.37 458.114 258.41V266.7H469.264C469.184 266.5 468.984 266.33 468.824 266.18C466.504 264.09 463.704 262.16 461.484 260.02C461.224 259.77 460.604 259.23 460.514 258.92C460.204 257.88 461.644 253.92 461.604 252.56L457.884 249.09C457.664 248.87 457.514 248.6 457.514 248.28C457.514 247.28 460.714 243.53 461.194 242.34C457.154 243.34 453.034 243.57 450.894 247.67C449.474 250.38 450.154 252.29 449.904 255.04C449.764 256.58 447.904 256.63 447.614 255.11C446.864 251.13 448.214 246.07 451.364 243.43C455.584 239.9 462.254 241.03 466.244 237.91C466.734 237.53 466.394 235.42 466.454 234.72C462.674 232.82 460.194 228.76 459.954 224.56C458.494 224.32 457.584 224.59 456.214 223.75C453.954 222.37 453.344 219.53 454.694 217.27C454.934 216.86 456.024 215.83 456.054 215.69C456.374 213.99 455.924 210.99 456.054 209.08C456.814 197.09 469.974 189.9 480.524 195.78C481.254 196.19 483.374 197.46 483.474 198.26C483.564 198.96 482.824 199.68 482.144 199.59C481.724 199.53 479.844 198.03 479.204 197.69C472.484 194.07 464.094 196.49 460.294 203.05C459.584 204.27 458.414 207.14 458.414 208.51V215.04L458.434 215.02ZM479.784 211.68C477.004 214.38 473.774 215.78 469.824 215.44C468.314 215.31 463.814 213.87 462.794 214.17C462.604 214.23 462.444 214.43 462.324 214.58C462.424 221.18 460.614 228.65 467.344 232.6C472.924 235.88 480.214 233.13 482.254 227.02C483.034 224.67 483.064 217.55 482.794 214.94C482.604 213.05 481.384 212.35 479.784 211.68ZM459.904 217.36C455.164 216.68 455.164 222.76 459.904 222.2V217.36ZM485.144 222.21C489.864 222.76 489.894 216.68 485.144 217.37V222.21ZM476.194 235.86C473.724 236.44 471.324 236.44 468.854 235.86V238.14C468.854 238.41 471.864 241.98 472.254 242.37C472.354 242.47 472.374 242.67 472.594 242.62C472.924 241.98 476.194 238.43 476.194 238.14V235.86ZM467.094 247.16L470.904 244.3L467.314 240L465.174 241.08L467.094 247.16ZM477.954 247.16L479.814 241.21C479.774 240.86 478.084 240.24 477.734 240L474.144 244.3L477.954 247.16ZM492.484 266.68C486.424 262.29 484.974 253.56 489.844 247.68C490.544 246.84 491.474 246.17 492.184 245.34C490.004 243.15 486.684 243.23 483.894 242.32C484.254 243.61 487.494 247.22 487.494 248.27C487.494 249.16 485.224 250.71 484.544 251.35C484.334 251.55 483.434 252.39 483.394 252.55C483.344 253.96 484.764 257.77 484.454 258.88C484.334 259.29 483.844 259.71 483.524 260.01C481.284 262.15 478.504 264.07 476.184 266.17C476.024 266.31 475.824 266.49 475.744 266.69H492.474L492.484 266.68ZM463.574 243.34L463.154 243.58C462.904 244.36 460.344 247.49 460.344 247.96C460.344 248.57 463.954 250.86 464.094 251.84L463.004 258.05L470.024 264.03L463.564 243.34H463.574ZM481.764 243.34L475.014 264.03L482.034 258.05L480.934 251.84C481.044 250.93 484.724 248.48 484.674 247.98L481.754 243.33L481.764 243.34ZM472.674 263.74L477.074 249.71L472.474 245.99L468.194 249.35L467.984 249.71L472.364 263.53C472.294 263.77 472.604 263.81 472.674 263.74Z" fill="white"/>
<text fill="white" xml:space="preserve" style="white-space: pre" font-family="Jost" font-size="16" font-weight="500" letter-spacing="0em"><tspan x="434.018" y="289.46">PSIC&#xd3;LOGO</tspan></text>
<path d="M37.0457 140.69C6.77574 194.01 -5.81426 257.06 3.92574 320.01L184.496 289.56C182.116 269.86 185.866 250.29 194.616 233.23L37.0457 140.69Z" fill="#29C3F1"/>
<path d="M76.2586 199.991C76.3286 199.931 76.5386 198.341 76.5186 198.241C76.4686 198.031 75.7986 197.531 75.6086 197.281C72.4686 193.161 73.3286 185.361 79.3886 184.751C86.8886 183.991 88.5786 192.841 84.4986 197.781C84.3586 197.961 84.0386 198.021 83.9886 198.241C83.9686 198.331 84.1786 199.941 84.2486 199.991C85.6786 200.151 87.0986 200.421 88.5086 200.711C88.8286 200.771 89.2186 201.041 89.4486 201.041C89.6786 201.041 90.1286 200.781 90.4386 200.711C90.9886 200.601 94.5286 200.051 94.6486 199.881C94.7786 199.701 94.8886 198.501 94.8186 198.241C94.7586 198.051 93.5386 196.681 93.2786 196.201C91.0386 192.091 92.2486 185.301 97.6986 184.751C105.029 184.021 106.979 192.411 103.199 197.421C103.009 197.671 102.499 198.001 102.429 198.251C102.369 198.461 102.539 199.861 102.669 199.951C102.799 200.041 104.829 200.341 104.919 200.261C105.229 196.171 112.289 192.151 114.209 197.161V224.091C114.359 225.021 112.279 228.671 111.669 228.961C110.609 229.461 109.779 228.621 110.209 227.501C110.699 226.241 112.399 225.011 112.229 223.281V198.071C112.129 196.651 110.909 196.841 109.879 197.181C108.209 197.741 107.159 199.281 106.919 200.991C106.509 207.291 107.459 214.281 106.919 220.501C106.799 221.841 106.219 222.751 105.389 223.751C102.129 227.651 98.1486 231.211 94.9086 235.161C93.7286 236.191 92.3586 234.771 93.3786 233.631C96.5386 230.001 100.139 226.591 103.269 222.951C104.249 221.811 105.049 221.151 104.759 219.461C104.439 217.621 102.129 216.801 100.589 217.741C99.5986 218.351 97.1186 221.021 96.0986 222.011C91.9886 225.991 88.0586 230.161 83.9686 234.161C82.0986 236.491 81.0786 239.501 81.3086 242.511C81.5386 245.521 83.5386 248.011 83.6986 251.141C83.7286 251.711 83.6486 252.531 82.9686 252.661C81.2586 253.001 81.6086 250.921 81.3586 249.771C81.1486 248.801 80.7186 247.891 80.3786 246.961C80.0686 246.891 80.1686 247.011 80.0886 247.131C79.6786 247.761 79.2486 249.231 79.0986 249.981C78.8886 251.071 79.2386 252.841 77.6586 252.671C76.0786 252.501 77.0786 249.231 77.3686 248.251C77.6586 247.271 78.1786 246.441 78.4986 245.531C79.8886 241.531 79.1686 237.241 76.4086 234.021C73.0486 230.101 68.1786 225.671 64.3986 222.011C63.3786 221.021 60.8986 218.351 59.9086 217.741C58.3786 216.811 56.0586 217.611 55.7386 219.461C55.4486 221.141 56.2486 221.811 57.2286 222.951C60.3586 226.591 63.9486 230.001 67.1186 233.631C68.1586 234.781 66.7286 236.191 65.5886 235.161C62.3286 231.211 58.3886 227.651 55.1086 223.751C54.3086 222.801 53.6886 221.921 53.5786 220.641C53.0386 214.381 53.9986 207.341 53.5786 201.001C53.3486 199.271 52.2286 197.681 50.5286 197.151C49.3186 196.781 48.4086 196.721 48.2686 198.201C48.0186 200.891 48.4886 203.941 48.2486 206.671C47.7686 207.531 46.6586 207.501 46.2886 206.561V197.151C48.2186 192.091 55.4586 196.231 55.5786 200.391C55.9486 200.141 57.7486 200.101 57.9086 199.871C57.9686 199.781 58.1286 198.401 58.0786 198.231C58.0086 197.991 57.4986 197.651 57.3086 197.401C53.4786 192.321 55.5386 183.891 62.9286 184.751C68.2086 185.361 69.4186 191.941 67.3286 196.021C67.0486 196.571 65.7586 198.011 65.6886 198.231C65.6086 198.501 65.7286 199.791 65.9186 199.931C66.0986 200.061 69.0986 200.471 69.6486 200.581C70.0486 200.661 70.7786 201.011 71.0586 201.021C71.2986 201.021 71.6886 200.761 71.9986 200.691C73.4086 200.401 74.8286 200.161 76.2586 199.971V199.991ZM61.7786 186.771C56.0186 186.891 56.5686 195.871 60.7486 197.551C64.8386 199.201 67.7286 191.611 65.3186 188.471C64.5286 187.441 63.0886 186.741 61.7886 186.771H61.7786ZM80.0886 186.771C74.9686 186.971 74.8686 194.131 78.0586 196.821C82.2986 200.391 85.8786 193.021 84.1586 189.261C83.4786 187.781 81.7186 186.711 80.0886 186.771ZM98.5286 186.771C93.3186 186.881 93.2386 194.201 96.5686 196.881C98.1386 198.151 99.5386 198.031 101.009 196.681C104.089 193.841 103.749 186.661 98.5286 186.771ZM63.6586 199.601C62.4486 199.971 61.2886 199.971 60.0786 199.601C59.1486 202.581 64.5286 202.581 63.6586 199.601ZM82.1086 199.611C80.8386 199.971 79.6686 199.971 78.3986 199.611C77.8286 202.621 82.6886 202.631 82.1086 199.611ZM100.419 199.611C99.2086 199.981 98.0486 199.981 96.8386 199.611C95.9686 202.591 101.349 202.591 100.419 199.611ZM55.6986 202.391V216.051C60.7886 213.001 63.7186 219.121 67.1086 221.751V206.431C67.1086 205.701 67.6986 204.331 68.0686 203.671C68.2886 203.261 68.7286 202.971 68.7086 202.521C68.0186 202.651 65.9586 201.871 65.4786 202.001C65.3986 202.021 64.7786 202.861 64.5286 203.051C62.5386 204.611 59.6086 204.111 58.2686 201.981L55.6986 202.391ZM79.1886 234.231V223.951C79.1886 223.021 81.3086 223.031 81.3086 223.951V234.231L83.0286 232.041L88.5986 226.601C87.5486 226.011 86.7386 225.161 86.4886 223.941C86.7686 219.461 86.0686 214.431 86.4686 210.021C86.6086 208.511 88.3886 208.501 88.5886 209.911C88.9086 214.271 88.1986 219.141 88.5886 223.441C88.7386 225.061 90.8286 225.141 91.1886 223.771C91.5986 222.211 91.0486 219.341 91.2486 217.591C91.3486 216.721 92.3086 216.241 92.9686 216.801C93.0386 216.861 93.3686 217.421 93.3686 217.461V221.771C96.7686 219.131 99.6786 213.011 104.779 216.071V202.411C104.139 202.541 102.709 201.911 102.219 202.001C102.149 202.011 101.569 202.811 101.329 203.011C99.7986 204.291 97.5286 204.311 95.9486 203.071C95.7086 202.881 95.0786 202.051 94.9986 202.021C94.5186 201.881 92.4586 202.671 91.7686 202.541C91.7486 203.001 92.1786 203.291 92.4086 203.691C92.9686 204.701 93.2786 205.681 93.3686 206.841C93.4686 208.231 93.5586 211.791 93.3586 213.071C93.1586 214.351 91.4286 214.351 91.2486 213.201C90.7286 209.871 92.7286 204.491 88.4086 202.901C87.9586 202.731 84.1586 201.961 83.8986 202.021C83.6086 202.091 83.4286 202.601 83.2086 202.791C81.4386 204.351 79.0086 204.351 77.2386 202.791C76.9786 202.561 76.8486 202.031 76.4486 202.011C73.2286 202.611 69.5286 202.701 69.1986 206.841C68.7786 212.241 69.4986 218.211 69.2386 223.661C69.5086 224.971 71.2686 225.081 71.7986 223.901L71.8686 209.911C72.0686 208.501 73.8486 208.511 73.9886 210.021C74.3886 214.431 73.6886 219.471 73.9686 223.941C73.6886 225.181 72.9686 226.031 71.8586 226.601L77.4286 232.041L79.1486 234.231H79.1886Z" fill="white"/>
<path d="M57.5185 240.031C56.9585 240.591 56.1585 240.271 55.7785 239.661C53.2785 235.211 49.3685 230.841 47.0185 226.401C46.6685 225.741 46.3385 224.841 46.2785 224.091C45.9085 219.811 46.5685 215.011 46.2785 210.681C46.4185 209.621 47.9485 209.541 48.2685 210.561C48.5085 214.661 47.9585 219.101 48.2685 223.171C48.3085 223.651 48.4285 224.161 48.5285 224.631C51.3785 229.471 54.6885 234.051 57.7185 238.791C57.9385 239.101 57.7585 239.801 57.5185 240.041V240.031Z" fill="white"/>
<path d="M108.209 230.941C109.179 230.721 109.859 231.571 109.469 232.471L99.7285 247.281C99.3485 248.071 98.9885 248.901 98.7585 249.761C98.5585 250.501 98.4985 252.441 97.7985 252.651C95.1285 253.451 96.8885 248.601 97.2985 247.511C100.409 241.881 104.299 236.711 107.729 231.271C107.839 231.101 107.999 230.991 108.199 230.941H108.209Z" fill="white"/>
<path d="M59.1185 242.081C59.5885 241.981 59.9185 242.181 60.2185 242.521C61.4885 243.981 63.2585 247.321 63.7585 249.191C63.9685 249.971 64.6485 252.321 63.5685 252.641C61.8585 253.151 62.0785 251.111 61.8185 250.061C61.6385 249.341 61.3385 248.481 61.0285 247.801C60.5585 246.791 58.2885 243.811 58.2585 243.161C58.2385 242.711 58.6785 242.171 59.1085 242.081H59.1185Z" fill="white"/>
<text fill="white" xml:space="preserve" style="white-space: pre" font-family="Jost" font-size="16" font-weight="500" letter-spacing="0em"><tspan x="35.1035" y="273.3">ASSISTENTE&#10;</tspan><tspan x="52.0332" y="295.3">SOCIAL</tspan></text>
<path d="M376.769 299.69C372.049 320.08 360.879 338.67 344.689 352.4L457.419 488.8C505.189 448.09 537.539 392.33 549.719 331.52L376.769 299.69Z" fill="#29C3F1"/>
<path d="M476.447 384.398V380.648C476.447 380.648 475.847 380.698 475.547 380.568C474.727 380.228 474.727 378.818 475.547 378.478C475.887 378.338 478.877 378.328 479.377 378.388C480.137 378.488 480.537 379.308 480.227 380.008C479.867 380.848 478.837 380.568 478.837 380.648V384.398C479.687 384.378 481.337 384.638 481.757 383.648C482.247 382.478 481.037 378.618 482.807 378.388C483.967 378.238 486.247 378.148 485.707 379.938C485.437 380.828 484.297 380.588 484.237 380.648C484.087 380.788 484.397 383.568 483.867 384.708C483.437 385.628 482.017 386.798 481.007 386.798H478.827C478.877 387.118 478.747 388.808 478.827 388.888C478.987 389.048 480.237 388.798 480.317 390.028C480.367 390.868 479.807 391.238 479.057 391.298C478.167 391.378 475.527 391.518 475.087 390.748C474.117 389.028 476.277 389.018 476.417 388.878C476.507 388.788 476.367 387.108 476.417 386.788H474.237C473.247 386.788 471.777 385.628 471.337 384.738C470.797 383.648 471.157 380.778 471.007 380.638C470.937 380.568 470.087 380.828 469.677 380.248C469.067 379.378 469.577 378.478 470.627 378.378C474.547 378.018 472.957 380.048 473.257 382.808C473.467 384.738 474.897 384.368 476.407 384.378L476.447 384.398Z" fill="white"/>
<path d="M460.655 359.715C460.565 359.185 460.805 358.185 460.585 357.735C460.485 357.545 459.635 357.055 459.385 356.825C456.905 354.525 455.255 351.765 455.005 348.305C452.805 348.035 450.785 345.885 450.515 343.695C450.455 343.175 450.595 342.495 450.465 342.045C450.385 341.755 449.705 341.105 449.525 340.585C449.205 339.665 449.305 338.485 449.785 337.635C449.955 337.335 450.405 336.965 450.465 336.765C450.585 336.365 450.445 335.755 450.525 335.275C450.605 334.815 451.035 334.315 451.055 333.965C451.085 333.565 450.575 332.945 450.505 332.415C450.165 329.965 451.615 327.295 454.225 326.995C454.735 326.935 456.575 327.195 456.675 327.125C456.715 327.095 456.785 326.735 456.905 326.585C458.135 325.085 459.695 324.445 461.665 324.775C462.775 324.965 463.755 326.305 464.865 325.795C465.025 325.725 465.165 325.445 465.385 325.325C466.555 324.675 467.475 324.495 468.775 324.995C469.265 325.185 469.845 325.775 470.045 325.835C470.205 325.885 472.845 326.005 473.135 325.995C473.285 325.995 474.675 324.895 475.415 324.775C477.625 324.405 479.805 325.395 480.645 327.515C481.025 328.475 481.375 330.475 479.895 330.545C478.185 330.615 478.885 329.055 478.335 328.135C477.785 327.215 476.495 326.785 475.485 327.255C475.045 327.455 474.645 328.195 474.315 328.345C473.605 328.665 472.205 328.135 471.425 328.135C470.755 328.135 469.855 328.535 469.205 328.395C468.445 328.235 468.325 327.095 467.455 327.055C466.465 327.005 466.405 328.395 465.355 328.435C465.015 328.445 462.925 328.185 462.595 328.085C462.165 327.955 461.945 327.395 461.365 327.195C460.165 326.785 459.015 327.405 458.585 328.565C458.365 329.135 458.565 329.725 457.845 330.085C456.825 330.595 456.605 329.825 455.935 329.525C454.165 328.735 452.285 330.435 452.905 332.275C453.205 333.165 454.595 333.635 453.695 334.835C453.515 335.075 453.235 335.145 453.075 335.335C452.325 336.225 453.325 336.715 453.125 337.645C452.945 338.475 451.735 338.365 451.645 339.385C451.535 340.605 452.455 339.545 453.085 339.445C454.125 339.285 456.145 339.795 456.895 339.025C457.445 338.455 457.235 337.745 458.445 337.875C460.125 338.065 459.205 340.315 458.215 341.045C457.785 341.365 457.305 341.255 457.225 341.895C457.065 343.215 457.145 345.885 457.225 347.265C458.035 360.775 476.685 360.715 477.535 347.395C477.655 345.535 477.445 343.555 477.535 341.685C476.165 341.835 474.585 340.935 473.805 339.845C473.555 339.495 473.205 338.375 473.145 338.315C473.095 338.275 472.305 338.295 472.025 338.235C470.705 337.945 469.625 337.045 468.975 335.895C468.385 336.165 467.385 335.905 466.905 336.065C466.625 336.155 465.635 337.685 464.415 338.085C463.195 338.485 459.455 338.375 460.695 336.335C461.395 335.185 462.725 336.395 463.985 335.675C464.825 335.195 464.965 333.785 465.685 333.565C466.345 333.355 466.895 333.775 467.535 333.725C468.435 333.655 469.055 332.785 469.695 332.805C471.135 332.855 470.635 335.035 471.985 335.745C473.135 336.345 474.255 335.335 475.005 336.105C475.555 336.665 475.235 337.465 475.525 338.125C475.905 338.965 476.895 339.355 477.745 339.425C478.505 339.495 480.735 339.545 481.405 339.425C482.475 339.235 481.595 337.185 481.785 336.565C481.955 335.985 483.175 335.795 483.125 334.865C483.045 333.455 481.055 334.205 480.905 332.875C480.675 330.875 483.255 331.415 484.305 332.305C485.705 333.485 485.725 335.325 484.895 336.845C484.745 337.115 484.395 337.345 484.335 337.555C484.195 338.025 484.365 338.765 484.275 339.325C484.195 339.785 483.765 340.285 483.745 340.635C483.715 341.025 484.245 341.715 484.305 342.315C484.615 345.125 482.625 347.915 479.805 348.325C479.545 351.785 477.905 354.545 475.425 356.845C475.175 357.075 474.315 357.565 474.225 357.755C474.005 358.205 474.245 359.195 474.155 359.735H481.415C485.765 359.735 491.065 365.445 491.085 369.815L491.005 391.885C490.475 392.805 488.965 392.635 488.815 391.545C488.515 384.835 489.235 377.745 488.825 371.085C488.685 368.875 488.075 366.935 486.635 365.235C483.215 361.185 478.465 362.035 473.685 362.025L468.095 368.565C467.155 369.185 466.655 368.565 466.035 367.925C464.415 366.215 462.975 364.045 461.385 362.275L460.955 362.005C457.445 362.125 453.785 361.465 450.595 363.195C449.615 363.725 448.075 365.615 447.155 364.105C446.305 362.695 449.155 361.185 450.225 360.705C450.815 360.445 452.805 359.745 453.355 359.745H460.615L460.655 359.715ZM455.005 341.665C451.455 341.165 452.775 345.235 455.005 345.895V341.665ZM479.835 345.895C482.115 345.255 483.355 341.155 479.835 341.665V345.895ZM471.935 359.015C468.945 359.985 465.905 359.985 462.915 359.015C462.955 359.395 462.845 359.845 462.915 360.215C462.975 360.545 466.595 364.905 467.065 365.365C467.175 365.475 467.285 365.665 467.475 365.635C467.815 365.575 471.245 360.985 471.865 360.425L471.945 359.025L471.935 359.015Z" fill="white"/>
<path d="M424.055 381.155C423.825 381.085 423.455 380.525 423.415 380.245C423.025 377.325 423.475 374.835 426.285 373.515C426.615 373.355 427.065 373.375 427.365 373.185C427.715 372.955 428.185 372.105 428.735 371.735C431.015 370.185 434.465 371.035 435.415 373.685C437.425 372.985 439.475 373.735 441.475 374.115C441.505 373.065 442.035 371.845 442.685 371.025C443.465 370.035 448.125 367.115 449.415 366.475C451.255 365.565 453.505 366.255 454.125 368.305C455.235 371.955 450.735 372.805 448.805 374.825L455.225 375.255C457.305 375.355 458.725 376.785 458.405 378.925H461.155C461.235 378.925 461.745 379.495 461.785 379.705C461.935 380.485 461.885 383.755 461.795 384.645C461.765 384.925 461.435 385.695 461.155 385.695H458.405V391.835C458.405 392.075 457.675 392.465 457.355 392.485C456.985 392.505 456.155 392.155 456.155 391.835V385.695H453.895V391.835C453.895 392.075 453.165 392.465 452.845 392.485C452.475 392.505 451.645 392.155 451.645 391.835V385.695H446.005V391.835C446.005 392.075 445.275 392.465 444.955 392.485C444.585 392.505 443.755 392.155 443.755 391.835V385.695H433.605V391.835C433.605 392.075 432.875 392.465 432.555 392.485C432.185 392.505 431.355 392.155 431.355 391.835V385.695H429.095V391.835C429.095 392.075 428.365 392.465 428.045 392.485C427.675 392.505 426.845 392.155 426.845 391.835V385.695H424.095C423.785 385.695 423.435 384.865 423.445 384.495C423.455 384.175 423.845 383.445 424.095 383.445H459.565V381.185H424.095L424.055 381.155ZM443.725 378.905C446.935 378.495 445.295 375.365 446.545 373.615C447.615 372.135 450.375 371.245 451.555 370.015C452.355 369.175 451.705 368.185 450.635 368.525C448.815 369.955 443.725 371.775 443.725 374.455V378.895V378.905ZM431.265 373.315C428.405 373.375 428.475 377.775 431.365 377.725C434.255 377.675 434.155 373.265 431.265 373.315ZM441.465 376.505C439.615 376.165 437.735 375.475 435.845 375.955C435.735 377.095 435.175 378.075 434.415 378.895H441.465V376.495V376.505ZM428.215 378.905C427.475 378.085 426.865 377.085 426.805 375.945C425.705 376.575 425.635 377.755 425.675 378.905H428.215ZM447.675 378.905H455.505C455.995 378.905 456.455 377.885 455.475 377.665L448.245 377.075C448.235 377.735 448.005 378.345 447.675 378.905Z" fill="white"/>
<path d="M434.245 341.705C448.365 340.265 453.575 358.855 441.705 365.095C431.565 370.425 420.175 360.445 424.155 349.665C424.535 348.645 425.835 345.525 427.285 347.025C428.145 347.915 427.025 348.985 426.635 349.885C422.155 360.065 434.755 368.885 442.735 361.475C450.925 353.885 442.225 340.215 431.635 344.875C430.845 345.225 429.205 346.615 428.595 345.285C428.135 344.295 428.645 343.915 429.345 343.425C430.595 342.565 432.735 341.845 434.235 341.695L434.245 341.705Z" fill="white"/>
<path d="M439.215 350.695H441.965C442.245 350.695 442.585 351.465 442.605 351.745C442.695 352.635 442.745 355.905 442.595 356.685C442.555 356.885 442.045 357.465 441.965 357.465H439.215V360.215C439.215 360.495 438.445 360.835 438.165 360.855C437.275 360.945 434.005 360.995 433.225 360.845C433.025 360.805 432.445 360.295 432.445 360.215V357.465H429.695C429.415 357.465 429.075 356.695 429.055 356.415C428.965 355.525 428.915 352.255 429.065 351.475C429.105 351.275 429.615 350.695 429.695 350.695H432.445V347.945C432.445 347.665 433.215 347.325 433.495 347.305C434.385 347.215 437.655 347.165 438.435 347.315C438.635 347.355 439.215 347.865 439.215 347.945V350.695ZM436.955 349.565H434.695V352.315C434.695 352.315 434.105 352.945 434.065 352.945H431.315V355.205H434.065C434.065 355.205 434.695 355.795 434.695 355.835V358.585H436.955V355.835C436.955 355.835 437.545 355.205 437.585 355.205H440.335V352.945H437.585C437.585 352.945 436.955 352.355 436.955 352.315V349.565Z" fill="white"/>
<path d="M481.625 374.415C482.255 374.225 482.785 374.414 483.145 374.954V391.874C482.615 392.684 481.555 392.674 481.035 391.874L480.955 375.294C480.925 374.994 481.365 374.495 481.625 374.415Z" fill="white"/>
<path d="M476.445 376.644C479.545 376.054 479.535 379.495 476.445 378.905C477.035 382.005 473.595 381.995 474.185 378.905C471.085 379.495 471.095 376.054 474.185 376.644C473.595 373.554 477.025 373.544 476.445 376.644Z" fill="white"/>
<path d="M463.575 350.725C464.545 350.435 465.065 351.175 465.905 351.445C466.945 351.775 468.025 351.765 469.055 351.405C469.795 351.155 471.305 349.925 471.865 351.255C472.665 353.175 468.805 354.075 467.495 354.085C466.405 354.085 463.045 353.325 462.905 352.035C462.845 351.535 463.055 350.875 463.575 350.715V350.725Z" fill="white"/>
<path d="M462.305 340.995C463.205 340.845 464.045 340.985 464.675 341.665C465.705 342.795 465.045 344.335 463.575 343.895C463.295 343.815 463.115 343.325 462.865 343.365C462.695 343.395 462.515 343.815 462.255 343.895C460.185 344.515 460.045 341.385 462.315 340.995H462.305Z" fill="white"/>
<path d="M471.335 340.995C473.485 340.595 475.225 342.945 473.705 343.785C472.635 344.385 472.125 343.325 471.885 343.365C471.715 343.395 471.535 343.815 471.275 343.895C469.215 344.515 469.065 341.415 471.335 340.995Z" fill="white"/>
<path d="M462.445 345.085C464.585 344.445 464.585 347.915 462.445 347.285C461.535 347.015 461.535 345.355 462.445 345.085Z" fill="white"/>
<path d="M471.465 345.085C473.605 344.445 473.605 347.915 471.465 347.285C470.555 347.015 470.555 345.355 471.465 345.085Z" fill="white"/>
<path d="M466.955 371.035C469.095 370.395 469.095 373.865 466.955 373.235C466.045 372.965 466.045 371.305 466.955 371.035Z" fill="white"/>
<path d="M466.955 375.544C469.095 374.904 469.095 378.375 466.955 377.745C466.045 377.475 466.045 375.814 466.955 375.544Z" fill="white"/>
<path d="M466.955 380.055C469.095 379.415 469.095 382.885 466.955 382.255C466.045 381.985 466.045 380.325 466.955 380.055Z" fill="white"/>
<path d="M466.955 384.575C469.095 383.935 469.095 387.405 466.955 386.775C466.045 386.505 466.045 384.845 466.955 384.575Z" fill="white"/>
<text fill="white" xml:space="preserve" style="white-space: pre" font-family="Jost" font-size="16" font-weight="500" letter-spacing="0em"><tspan x="395.721" y="413.045">FISIOTERAPEUTA</tspan></text>
<path d="M100.689 491.91C148.519 531.38 208.819 554.2 271.559 555.62L272.899 376.07C252.839 374.36 233.799 366.49 218.439 353.69L100.689 491.91Z" fill="#29C3F1"/>
<path d="M166.806 469.74C166.806 469.74 166.761 469.74 166.743 469.74C166.36 469.705 166.075 469.366 166.111 468.975C166.129 468.743 166.164 468.458 166.253 468.146C166.921 465.795 167.669 463.044 167.981 460.283C168.284 457.647 168.115 455.047 167.482 452.562C166.85 450.077 165.817 447.664 164.9 445.589C163.502 442.454 162.522 440.014 161.721 437.672C160.875 435.205 160.554 432.525 160.741 429.497C160.892 427.075 161.462 424.75 162.424 422.595C164.383 418.205 167.687 414.785 172.247 412.416C176.236 410.341 180.556 409.451 185.106 409.745C189.452 410.03 193.513 411.383 197.164 413.761C200.45 415.898 202.775 418.775 204.084 422.292C205.063 424.937 205.33 427.84 204.912 431.42C204.663 433.593 205.028 435.455 206.043 437.093C206.453 437.752 206.889 438.411 207.325 439.043C207.762 439.694 208.216 440.361 208.634 441.038C209.569 442.552 209.837 443.933 209.418 445.153C209.017 446.328 207.975 447.263 206.417 447.86C206.061 447.993 205.651 447.815 205.517 447.45C205.384 447.085 205.562 446.684 205.927 446.551C206.738 446.248 207.771 445.678 208.1 444.698C208.376 443.897 208.153 442.917 207.45 441.777C207.049 441.118 206.604 440.459 206.176 439.827C205.74 439.177 205.286 438.509 204.867 437.823C203.683 435.909 203.247 433.754 203.54 431.251C203.932 427.894 203.692 425.196 202.792 422.764C201.59 419.532 199.444 416.896 196.416 414.919C192.97 412.666 189.132 411.392 185.026 411.125C180.743 410.84 176.664 411.686 172.906 413.645C168.631 415.863 165.541 419.069 163.715 423.156C162.825 425.16 162.299 427.315 162.157 429.577C161.979 432.418 162.273 434.92 163.056 437.209C163.849 439.507 164.811 441.911 166.191 445.01C167.135 447.13 168.195 449.614 168.854 452.206C169.531 454.86 169.709 457.629 169.379 460.434C169.05 463.302 168.293 466.116 167.607 468.52C167.554 468.716 167.527 468.912 167.509 469.09C167.474 469.455 167.171 469.723 166.815 469.723L166.806 469.74Z" fill="white"/>
<path d="M172.291 470.373C171.908 470.373 171.606 470.07 171.597 469.687C171.597 469.331 171.695 469.037 171.766 468.814C172.648 466.259 173.351 463.578 174.028 460.995L174.58 458.903C175.284 456.267 176.005 453.542 177.439 451.057C178.463 449.276 179.781 447.967 181.455 447.032C184.198 445.5 187.092 445.527 189.826 445.678C191.937 445.794 194.145 446.168 196.772 446.845L197.289 446.978C199.079 447.441 200.931 447.913 202.73 448.537C203.095 448.661 203.291 449.062 203.166 449.427C203.042 449.792 202.641 449.988 202.276 449.864C200.539 449.258 198.714 448.795 196.95 448.341L196.434 448.207C193.896 447.557 191.776 447.201 189.764 447.085C187.235 446.943 184.563 446.916 182.15 448.261C180.707 449.062 179.567 450.211 178.668 451.761C177.323 454.076 176.655 456.596 175.951 459.259L175.399 461.352C174.714 463.961 174.001 466.659 173.102 469.269C173.048 469.429 173.004 469.554 173.004 469.652C173.013 470.034 172.71 470.355 172.318 470.364H172.3L172.291 470.373Z" fill="white"/>
<path d="M181.241 471.548C180.903 471.548 180.6 471.299 180.547 470.951C180.52 470.791 180.52 470.622 180.529 470.462C180.529 470.337 180.529 470.221 180.511 470.141C179.932 468.2 179.487 466.089 179.175 463.863C178.881 461.725 178.828 459.668 179.033 457.727C179.282 455.296 179.941 453.461 181.108 451.956C182.933 449.587 185.551 448.403 189.336 448.216C191.34 448.118 193.451 448.314 195.757 448.804C197.458 449.169 199.408 449.65 201.091 450.834C201.109 450.852 201.18 450.879 201.456 450.852C201.839 450.816 202.178 451.101 202.213 451.484C202.249 451.867 201.964 452.206 201.581 452.241C201.207 452.277 200.717 452.277 200.281 451.974C198.82 450.941 197.102 450.513 195.463 450.166C193.272 449.703 191.287 449.516 189.399 449.605C186.006 449.765 183.797 450.754 182.212 452.802C181.214 454.093 180.645 455.705 180.422 457.86C180.235 459.686 180.279 461.636 180.555 463.658C180.858 465.813 181.286 467.861 181.847 469.731C181.936 470.016 181.927 470.275 181.918 470.479C181.918 470.568 181.918 470.649 181.918 470.738C181.971 471.121 181.713 471.477 181.33 471.53C181.295 471.53 181.259 471.53 181.223 471.53L181.241 471.548Z" fill="white"/>
<path d="M189.817 469.811C189.461 469.811 189.158 469.544 189.123 469.179L189.087 468.814C188.989 467.781 188.882 466.721 189.016 465.626C189.283 463.48 190.343 461.948 192.097 461.209C193.593 460.576 195.169 460.594 196.701 460.612H196.87C197.396 460.612 197.921 460.648 198.456 460.674C199.693 460.737 200.86 460.79 202.018 460.585C202.614 460.478 202.819 460.282 202.908 459.704C203.006 459.071 202.935 458.43 202.864 457.744L202.828 457.424C202.659 455.874 202.445 453.942 204.485 452.74C204.529 452.695 204.565 452.579 204.395 452.152C204.369 452.072 204.333 451.992 204.298 451.92C204.164 451.618 203.995 451.235 204.013 450.763C204.021 450.495 204.182 450.264 204.422 450.157C205.348 449.738 205.713 449.097 205.616 448.091C205.598 447.904 205.598 447.717 205.607 447.53V447.325C205.607 446.942 205.927 446.622 206.31 446.622C206.693 446.622 207.014 446.933 207.014 447.325V447.566C207.014 447.699 207.005 447.824 207.014 447.957C207.147 449.373 206.631 450.478 205.5 451.172C205.526 451.235 205.553 451.297 205.58 451.359C205.624 451.457 205.669 451.555 205.705 451.662C206.123 452.74 205.945 453.514 205.197 453.96C203.995 454.672 204.039 455.634 204.226 457.281L204.262 457.602C204.342 458.35 204.431 459.125 204.298 459.944C204.11 461.111 203.443 461.77 202.267 461.983C200.949 462.215 199.649 462.153 198.384 462.09C197.877 462.064 197.369 462.037 196.861 462.037H196.692C195.241 462.019 193.869 462.01 192.64 462.527C191.358 463.07 190.61 464.174 190.405 465.822C190.289 466.766 190.378 467.71 190.485 468.707L190.521 469.072C190.556 469.455 190.271 469.802 189.889 469.838C189.862 469.838 189.844 469.838 189.817 469.838V469.811Z" fill="white"/>
<path d="M218.804 466.062C218.493 466.062 218.208 465.849 218.128 465.528C217.967 464.878 218.386 464.495 218.564 464.335C218.591 464.308 218.617 464.29 218.635 464.264C220.211 462.527 221.351 460.693 222.117 458.653C223.141 455.946 223.497 453.256 223.195 450.433C222.794 446.658 221.325 443.407 218.697 440.486L218.608 440.388C218.546 440.317 218.457 440.21 218.412 440.192C218.03 440.174 217.736 439.854 217.745 439.471C217.762 439.088 218.092 438.785 218.475 438.803C219.098 438.83 219.446 439.239 219.659 439.48L219.73 439.56C222.509 442.659 224.139 446.275 224.575 450.291C224.905 453.337 224.522 456.24 223.417 459.161C222.589 461.36 221.36 463.337 219.668 465.208C219.615 465.261 219.561 465.314 219.508 465.368C219.508 465.68 219.294 465.965 218.974 466.036C218.92 466.054 218.858 466.054 218.804 466.054V466.062Z" fill="white"/>
<path d="M214.227 461.486C213.862 461.486 213.559 461.209 213.532 460.844C213.488 460.355 213.639 460.025 213.96 459.838C214.182 459.713 214.352 459.464 214.548 459.188L214.69 458.983C217.068 455.67 217.54 452.188 216.142 448.323C215.714 447.139 214.984 445.999 213.844 444.734C213.586 444.449 213.612 444.004 213.897 443.746C214.182 443.488 214.628 443.514 214.886 443.799C216.142 445.206 216.961 446.489 217.451 447.842C219 452.108 218.448 456.133 215.821 459.794L215.696 459.972C215.5 460.257 215.269 460.595 214.922 460.862C214.886 461.183 214.619 461.45 214.28 461.477C214.263 461.477 214.245 461.477 214.227 461.477V461.486Z" fill="white"/>
<path d="M209.712 456.694C209.534 456.694 209.356 456.631 209.222 456.498C208.946 456.231 208.937 455.785 209.204 455.509C210.896 453.773 210.95 451.057 209.329 449.338C208.991 448.982 209.008 448.59 209.017 448.403C208.928 448.029 209.16 447.646 209.534 447.548C209.908 447.459 210.291 447.681 210.389 448.056C210.424 448.216 210.424 448.349 210.415 448.447C212.482 450.718 212.401 454.227 210.211 456.48C210.077 456.623 209.89 456.694 209.712 456.694Z" fill="white"/>
<text fill="white" xml:space="preserve" style="white-space: pre" font-family="Jost" font-size="16" font-weight="500" letter-spacing="0em"><tspan x="113.854" y="492.108">FONODIAUDI&#xd3;LOGO</tspan></text>
<path d="M198.129 226.4C208.229 210.04 223.179 196.55 241.849 188.34L181.179 17.6899C120.339 40.2699 72.0195 82.1599 40.6895 133.93L198.129 226.4Z" fill="#29C3F1"/>
<path fill-rule="evenodd" clip-rule="evenodd" d="M194.434 108.391C194.024 101.821 189.784 96.3206 183.634 94.5706L178.544 92.7406L171.074 90.4506C170.504 90.0206 169.574 85.9906 169.864 85.4106C169.887 85.3701 170.14 85.1534 170.437 84.899C170.801 84.5882 171.23 84.2211 171.384 84.0506C172.544 82.7506 173.694 80.7406 174.274 79.1006C174.361 78.8601 174.514 78.211 174.652 77.6198L174.653 77.6192L174.653 77.6191C174.785 77.0553 174.905 76.5443 174.944 76.4906C174.964 76.4634 175.125 76.3889 175.346 76.2859L175.346 76.2859L175.346 76.2858L175.346 76.2858C175.776 76.0856 176.437 75.7779 176.754 75.5006C178.654 73.8706 178.944 70.1906 177.474 68.2106C177.19 67.8321 176.594 67.4801 176.271 67.2896C176.15 67.2183 176.068 67.1697 176.054 67.1506C175.969 67.0287 176.418 65.6028 176.816 64.3403C177.072 63.5314 177.305 62.7896 177.364 62.5006C179.124 53.9806 175.714 47.7706 167.354 45.3606C163.344 44.2006 159.504 44.4206 156.114 47.0106C155.962 47.1272 155.795 47.3161 155.631 47.5026L155.631 47.5026L155.631 47.5027L155.631 47.5027C155.428 47.7321 155.23 47.9579 155.064 48.0406C154.72 48.2068 154.098 48.2814 153.49 48.3542C153.073 48.4042 152.663 48.4534 152.354 48.5306C145.454 50.2606 143.964 57.2606 145.834 63.3706C145.94 63.719 146.356 64.622 146.753 65.4852L146.753 65.4853L146.753 65.4854L146.753 65.4856C147.177 66.4066 147.58 67.2822 147.564 67.3906C147.564 67.4147 147.451 67.5031 147.3 67.6217C147.075 67.7988 146.764 68.043 146.614 68.2406C145.164 70.1906 145.484 74.2806 147.554 75.7206C147.737 75.8489 148.067 75.9844 148.375 76.1105L148.375 76.1105C148.691 76.24 148.983 76.3594 149.064 76.4506C149.162 76.5705 149.397 77.385 149.632 78.2018C149.829 78.8843 150.026 79.5684 150.144 79.8506C150.654 81.0706 151.504 82.5506 152.354 83.5606C152.502 83.7372 152.815 84.0269 153.142 84.3291L153.142 84.3291L153.142 84.3293C153.611 84.7628 154.107 85.2221 154.184 85.4106C154.604 86.3906 153.534 89.4406 153.114 90.4906C152.66 90.686 151.497 90.9986 150.195 91.3487L150.195 91.3487C149.031 91.6616 147.756 92.0045 146.774 92.3206H146.744L146.634 92.3706C146.319 92.4689 146.044 92.5769 145.816 92.666L145.816 92.6661L145.815 92.6662L145.804 92.6706L139.614 94.9206L139.594 94.9406C134.034 96.9806 130.184 101.971 129.784 108.221C129.642 110.409 129.704 112.672 129.767 114.935C129.823 116.985 129.879 119.035 129.784 121.031C129.844 121.921 130.604 122.401 131.464 122.391C139.517 122.348 147.577 122.369 155.635 122.389H155.638H155.638H155.639H155.639C168.304 122.422 180.967 122.455 193.604 122.241C194.244 121.961 194.424 121.531 194.484 120.881C194.794 117.541 194.694 111.791 194.484 108.391H194.434ZM163.894 89.1806L163.254 94.9106H160.744L159.884 89.1806L156.144 88.7806C156.314 88.1506 156.454 87.5106 156.504 86.8506C160.054 88.3806 164.004 88.4706 167.544 86.8506C167.614 87.5006 167.764 88.1206 167.944 88.7406L163.894 89.1806ZM154.034 50.5406C154.284 50.5073 154.545 50.5174 154.805 50.5274C155.169 50.5415 155.532 50.5556 155.864 50.4506C156.188 50.349 156.645 49.8558 157.061 49.407C157.3 49.1495 157.525 48.9065 157.704 48.7606C161.044 46.0706 165.654 46.8606 169.254 48.5706C175.764 51.6506 176.384 57.5706 174.584 63.9606L173.594 61.9906C171.864 59.0906 169.774 58.2506 166.494 58.1906C162.414 58.1206 160.374 57.7906 156.924 55.4506C156.73 55.3205 156.538 55.1451 156.342 54.9662C155.919 54.5814 155.479 54.1806 154.974 54.1806C153.524 54.1806 151.214 57.0106 150.504 58.2106C149.464 59.9506 148.804 61.9406 148.574 63.9606C146.084 58.5706 147.274 51.4806 154.034 50.5306V50.5406ZM151.774 77.5706C151.704 77.3222 151.637 76.9414 151.564 76.5334C151.43 75.7756 151.279 74.9237 151.064 74.6506C150.871 74.4129 150.501 74.3214 150.086 74.219C149.489 74.0715 148.802 73.9016 148.424 73.2406C148.044 72.5606 147.974 70.5506 148.354 69.8306C148.64 69.2862 148.951 69.2777 149.313 69.2678C149.47 69.2635 149.636 69.2589 149.814 69.2106C151.044 68.8753 150.924 67.8011 150.804 66.7251C150.762 66.3574 150.721 65.9894 150.734 65.6506C150.854 62.2906 152.194 58.9306 154.814 56.7706C157.294 58.8306 160.694 60.3606 163.944 60.6006C164.681 60.6571 165.369 60.6319 166.021 60.608C167.911 60.5388 169.496 60.4808 171.064 62.4506C172.237 63.9202 172.445 65.1697 172.683 66.5975C172.774 67.1419 172.869 67.7123 173.024 68.3306C173.238 69.1749 173.972 69.2094 174.611 69.2394C174.987 69.257 175.329 69.2731 175.514 69.4506C176.234 70.1506 176.144 72.1706 175.744 73.0406C175.348 73.9044 174.686 74.0601 174.083 74.2017C173.604 74.3143 173.163 74.4179 172.924 74.8606C172.739 75.2048 172.595 75.9331 172.445 76.6966C172.312 77.375 172.173 78.0813 171.994 78.5706C168.284 88.6106 154.734 87.9206 151.784 77.5706H151.774ZM160.674 119.451H183.734L187.324 101.871C187.514 100.931 186.874 100.011 185.924 99.8707L165.734 96.8707C164.944 96.7507 164.204 97.2907 164.074 98.0907L160.674 119.451Z" fill="white"/>
<path d="M163.708 118.429C163.708 118.429 166.838 103.099 167.448 98.1487C167.488 97.8187 166.228 97.4987 166.168 97.8287C165.328 102.359 162.698 118.429 162.698 118.429H163.708Z" fill="white"/>
<path d="M175.598 102.94L174.849 102.808L172.533 115.904L173.281 116.037L175.598 102.94Z" fill="white"/>
<path d="M178.06 107.989L178.192 107.241L170.945 105.959L170.812 106.707L178.06 107.989Z" fill="white"/>
<text fill="white" xml:space="preserve" style="white-space: pre" font-family="Jost" font-size="16" font-weight="500" letter-spacing="0em"><tspan x="126.268" y="142.973">CAPEL&#xc3;O&#10;</tspan><tspan x="111.877" y="164.973">(SACERDOTE)</tspan></text>
<path d="M95.7595 486.72L213.649 348.33C203.329 338.24 195.079 325.7 189.909 311.18C188.319 306.71 187.099 302.21 186.179 297.69L5.68945 328.14C8.32945 342.53 12.1295 356.89 17.1895 371.1C33.6295 417.35 61.1795 456.52 95.7595 486.72Z" fill="#29C3F1"/>
<path d="M117.949 337.541C121.129 337.851 121.299 343.221 118.359 344.041C118.489 345.521 118.209 347.221 118.359 348.681C118.429 349.311 118.749 349.871 118.799 350.561C119.029 353.501 117.039 355.701 114.209 356.151C114.169 361.011 112.119 365.551 108.359 368.621V373.161L110.589 374.051C110.729 374.051 111.229 372.351 111.359 372.061C114.839 364.161 122.829 359.571 131.479 360.861C132.519 361.021 135.709 361.551 134.359 363.221C133.699 364.031 131.109 363.081 130.069 363.001C110.989 361.591 105.349 387.831 122.649 394.551C139.799 401.211 153.199 378.501 138.929 366.641C138.059 365.911 135.869 365.101 136.759 363.741C137.479 362.651 138.769 363.691 139.489 364.191C151.849 372.861 148.689 392.501 134.319 397.061C121.249 401.211 109.549 391.191 109.919 377.901C109.939 377.271 110.479 376.261 109.639 376.091L101.169 397.351C100.649 398.191 99.4689 398.081 99.0589 397.201L90.7189 376.241C90.5189 376.171 90.3389 376.241 90.1489 376.301C87.8389 376.931 83.4889 378.951 81.4689 380.271C80.6489 380.811 79.6989 382.171 78.7289 381.041C77.5489 379.661 80.7589 377.921 81.7689 377.371C84.8989 375.641 88.6789 374.671 91.9089 373.081C91.9789 372.801 91.9489 369.011 91.8789 368.771C91.8389 368.651 90.2989 367.321 90.0089 367.001C87.2789 363.991 85.9689 360.081 85.9389 356.021C83.3589 356.051 81.2389 353.511 81.2789 351.001C81.2889 350.201 81.6489 349.531 81.7289 348.821C81.7989 348.181 81.7889 343.991 81.5889 343.721C81.4889 343.581 81.1889 343.501 81.0189 343.271C80.0689 342.041 79.9689 339.801 80.9189 338.561C81.5389 337.761 82.1989 338.001 82.2989 336.891C82.5589 334.181 82.2389 332.771 83.8689 330.321C85.0889 328.481 86.0289 328.271 87.6689 327.151C89.4489 325.931 90.0489 325.041 92.4389 324.651C93.7089 324.441 94.9089 324.771 96.0289 324.601C98.0889 324.281 98.7689 323.461 101.399 323.751C102.349 323.861 103.319 324.481 104.039 324.601C105.489 324.831 106.719 324.411 108.459 324.831C110.309 325.271 114.669 328.281 115.869 329.771C117.749 332.121 117.769 334.661 117.919 337.531L117.949 337.541ZM84.4989 337.561H87.3389C87.6189 337.561 88.1089 338.201 88.1389 338.521C88.3789 340.891 83.5589 339.391 82.7489 339.951C82.4989 340.131 82.5389 341.781 82.8289 341.781H97.0089C96.8389 341.101 96.8389 340.571 97.0089 339.891H91.5589C90.5189 339.891 89.7989 337.771 91.5589 337.561C92.4889 337.451 97.2589 337.731 97.5689 337.541C100.079 331.151 109.079 330.041 112.979 335.771C113.199 336.091 113.819 337.491 113.899 337.541C114.129 337.681 115.249 337.491 115.619 337.561C115.589 334.791 115.439 332.111 113.139 330.231C112.509 329.721 111.749 329.471 111.129 329.051C109.929 328.231 109.569 327.481 107.889 327.051C106.209 326.621 105.199 327.131 103.789 326.941C102.569 326.771 101.589 325.941 100.009 325.951C98.5389 325.961 97.5789 326.771 96.4989 326.941C94.6389 327.231 93.5489 326.481 91.3889 327.361C90.2589 327.821 89.7489 328.571 88.8589 329.191C88.1389 329.701 87.2989 329.891 86.5489 330.661C84.5989 332.641 84.6989 334.981 84.5089 337.561H84.4989ZM104.669 334.401C102.199 334.741 100.049 336.821 99.4289 339.191C97.8489 345.191 104.939 349.831 109.799 345.921C114.999 341.731 111.349 333.491 104.669 334.401ZM114.449 341.771H117.869C118.199 341.771 118.199 339.881 117.869 339.881H114.449C114.649 340.531 114.649 341.121 114.449 341.771ZM84.0589 344.101V346.571L85.9589 345.901V344.101H84.0589ZM97.5889 344.101H88.2889C88.4789 348.321 88.0289 352.771 88.2889 356.971C88.8989 367.281 100.259 373.911 108.209 365.691C109.859 363.981 111.849 360.231 111.849 357.841V347.301C107.279 351.411 99.8289 349.911 97.5989 344.101H97.5889ZM116.049 344.101H114.159V345.911L116.059 346.431V344.101H116.049ZM85.9489 348.311C82.7989 348.971 82.8989 353.071 85.9489 353.831V348.311ZM114.159 353.841C117.269 353.171 117.329 348.881 114.159 348.321V353.841ZM94.2389 370.271V373.541C95.4989 374.291 98.1889 377.541 99.4289 377.801C99.8589 377.891 100.379 377.841 100.819 377.801C102.709 376.681 104.329 374.981 106.009 373.541V370.121C102.289 372.211 97.9989 372.221 94.2289 370.271H94.2389ZM107.469 375.501C107.199 375.441 107.119 375.651 106.959 375.791C105.489 377.011 102.779 379.901 100.989 380.141C97.2989 380.631 95.6089 377.331 92.9289 375.501L100.049 393.671L107.459 375.501H107.469Z" fill="white"/>
<path d="M122.559 368.421C123.679 368.301 124.719 368.411 125.789 368.741C126.489 368.961 128.269 370.101 128.619 370.111C129.189 370.121 130.009 369.401 130.559 369.151C137.619 365.931 144.339 373.391 140.389 380.141C139.649 381.411 137.299 383.881 136.919 384.951C136.169 387.071 137.329 391.891 133.989 392.351C129.519 392.961 130.519 387.591 129.529 385.061C129.209 384.231 128.159 384.321 127.809 385.161C126.949 387.241 127.659 391.761 124.659 392.331C123.299 392.591 121.829 392.011 121.249 390.721C120.539 389.141 120.949 386.681 120.479 385.091C120.109 383.821 117.259 380.991 116.499 379.331C114.289 374.551 117.319 368.971 122.559 368.421ZM130.969 383.111C132.289 384.431 132.149 387.811 132.729 389.561C132.969 390.121 133.629 390.241 133.999 389.741L134.729 384.071C136.599 380.811 140.629 378.081 138.839 373.851C137.709 371.181 134.569 370.021 131.899 371.061C131.149 371.351 130.439 372.081 129.729 372.231C126.969 372.811 126.449 370.971 124.249 370.711C119.509 370.161 116.539 374.921 118.979 379.031C119.749 380.321 122.319 383.041 122.669 384.211C122.969 385.231 122.979 389.481 123.519 389.901C123.839 390.151 124.339 390.101 124.539 389.741C125.099 388.081 125.089 386.031 125.589 384.391C126.279 382.131 129.299 381.441 130.959 383.111H130.969Z" fill="white"/>
<path d="M81.1187 388.331C83.0287 388.051 87.9587 388.121 89.9587 388.291C91.0487 388.381 91.9187 388.761 92.0687 389.961C92.1687 390.801 92.1687 393.051 92.0687 393.891C91.9287 395.051 91.0187 395.471 89.9587 395.561C87.7787 395.751 83.6987 395.751 81.5187 395.561C80.7687 395.501 79.9687 395.291 79.5787 394.591C79.1287 393.771 79.1187 390.311 79.4887 389.451C79.7787 388.761 80.4187 388.431 81.1287 388.321L81.1187 388.331ZM89.8787 390.621H81.5887V393.241H89.8787V390.621Z" fill="white"/>
<path d="M75.6788 382.961C76.5288 382.181 77.8288 382.811 77.6688 383.991C77.6088 384.421 76.7388 385.611 76.4788 386.161C75.4788 388.291 75.0288 390.531 74.9088 392.871C74.8488 393.951 75.1188 396.371 74.8788 397.201C74.5988 398.161 72.9788 398.131 72.7288 397.081C72.6788 393.401 72.4888 390.161 73.7788 386.651C74.0488 385.911 75.1788 383.401 75.6788 382.951V382.961Z" fill="white"/>
<path d="M104.969 336.431C108.289 335.941 110.969 338.941 109.989 342.181C109.009 345.421 104.449 346.371 102.239 343.591C100.199 341.011 101.679 336.921 104.959 336.441L104.969 336.431ZM105.099 338.751C103.069 339.211 103.129 342.591 105.219 342.921C108.879 343.501 108.629 337.941 105.099 338.751Z" fill="white"/>
<path d="M125.759 374.361C126.329 374.291 127.129 374.921 127.789 375.031C128.199 375.091 128.799 375.111 129.219 375.071C130.339 374.971 131.509 373.691 132.339 374.841C133.499 376.431 130.419 377.291 129.359 377.391C128.179 377.491 124.839 377.091 124.769 375.571C124.739 374.931 125.129 374.441 125.759 374.361Z" fill="white"/>
<text fill="white" xml:space="preserve" style="white-space: pre" font-family="Jost" font-size="16" font-weight="500" letter-spacing="0em"><tspan x="73.8667" y="418.57">DENTISTA</tspan></text>
<path d="M315.689 186.73C334.889 193.98 351.709 207.2 363.239 224.99L516.799 137.85C484.619 82.8899 435.049 41.9299 377.899 19.6899L315.689 186.73Z" fill="#29C3F1"/>
<path d="M425.395 105.807L432.455 108.657C434.065 109.597 434.885 110.887 435.215 112.707C435.895 116.467 435.895 120.567 436.605 124.347C436.655 125.097 436.085 125.667 435.315 125.637H400.025C398.715 125.517 398.695 124.887 398.745 123.737C398.885 120.737 399.505 116.487 399.975 113.467C400.385 110.867 400.905 109.567 403.385 108.397C405.425 107.437 407.825 106.737 409.945 105.947C409.975 105.727 409.545 105.677 409.405 105.657C408.185 105.527 407.235 105.587 405.955 105.317C404.985 105.107 402.365 104.517 402.365 103.297C402.365 102.877 403.915 99.6368 404.195 98.7568C404.885 96.5568 405.365 93.9368 405.555 91.6368C405.935 87.1268 404.835 82.3968 408.545 78.9268C407.795 76.6468 405.755 74.1968 407.015 71.7468C407.665 70.4868 408.955 69.8768 410.325 69.7568C415.055 69.3468 420.365 70.0668 425.165 69.7568C427.015 69.9068 428.545 71.3168 428.705 73.1768C428.865 75.0368 427.255 77.2168 426.755 78.9168C427.365 79.7668 428.125 80.5068 428.595 81.4568C430.075 84.4368 429.465 87.2568 429.625 90.4168C429.755 92.9368 430.225 95.9068 430.945 98.3268C431.195 99.1668 432.935 103.137 432.915 103.407C432.825 104.397 431.015 104.827 430.195 105.057C428.545 105.517 427.075 105.597 425.385 105.777L425.395 105.807ZM424.025 79.9268L426.415 73.9068C426.625 72.8368 426.075 72.1368 425.015 72.0468C420.305 71.6168 414.945 72.3868 410.165 72.0468C409.325 72.1168 408.625 72.9668 408.835 73.8268L411.305 79.9168C415.245 78.3968 420.065 78.4668 424.015 79.9168L424.025 79.9268ZM425.695 81.2868C425.325 83.4768 423.605 82.0268 422.365 81.6668C419.695 80.8868 415.515 80.8968 412.865 81.7068C411.945 81.9868 410.825 82.9168 410.025 82.2068C409.625 81.8468 409.775 81.1568 409.265 81.5968C408.505 82.2568 407.935 84.7768 407.855 85.7868C407.555 89.3768 407.915 92.4568 407.185 96.1668C406.735 98.4568 405.895 100.607 405.115 102.787C405.975 103.247 411.015 103.907 411.455 103.387C411.895 102.867 410.745 102.067 410.495 101.727C407.745 97.9668 408.435 94.3568 408.505 89.9268C408.575 89.7568 408.675 89.5968 408.815 89.4768C409.285 89.0568 412.085 88.5868 412.945 88.3068C414.825 87.7068 417.125 86.6768 418.345 85.0768C418.765 84.5268 419.075 83.4968 419.685 83.2368C421.075 82.6368 421.345 84.4568 421.895 85.3468C422.445 86.2368 423.305 87.1168 424.205 87.7268C425.235 88.4368 426.665 88.5268 426.875 89.8968C427.405 93.2868 427.005 98.5668 425.005 101.427C424.745 101.797 423.425 103.027 423.735 103.397C425.895 103.817 428.135 103.347 430.235 102.797C429.105 100.207 428.255 97.4868 427.835 94.6768C427.605 93.1068 427.435 91.4368 427.355 89.8568C427.215 86.9068 427.935 83.6768 425.685 81.3068L425.695 81.2868ZM410.725 91.1468C410.835 94.3368 410.055 97.5068 412.165 100.197C415.155 104.007 421.235 103.627 423.645 99.4368C425.175 96.7868 424.515 93.5568 424.615 90.6168C422.835 89.4968 421.155 88.4168 420.025 86.5868C417.675 89.2768 414.135 90.4168 410.735 91.1368L410.725 91.1468ZM421.605 104.297C418.995 105.287 416.335 105.367 413.735 104.297C413.785 104.757 413.585 105.367 413.885 105.737L417.725 108.987C418.305 108.177 421.465 106.017 421.605 105.287C421.665 104.987 421.585 104.617 421.605 104.307V104.297ZM401.015 123.367H434.165C433.725 120.187 433.575 116.947 433.085 113.777C432.965 113.017 432.945 112.277 432.495 111.637C431.625 110.397 430.135 110.207 428.865 109.597V114.067C431.305 115.077 432.635 117.977 430.985 120.267C428.145 124.227 422.075 120.677 424.095 116.257C424.615 115.117 425.525 114.607 426.575 114.037V108.707L422.905 107.357L418.415 111.327C418.005 111.617 417.395 111.687 416.975 111.417L412.515 107.397C412.335 107.317 410.045 108.147 409.975 108.257C409.825 108.497 410.025 109.577 409.945 109.947C411.575 110.547 413.045 111.497 413.705 113.187C414.225 114.527 414.185 118.997 414.055 120.577C414.005 121.167 413.875 121.587 413.205 121.697C412.165 121.867 409.655 121.997 409.805 120.437C409.935 119.107 411.805 119.557 411.925 119.437C412.085 119.277 411.965 115.477 411.905 114.987C411.455 111.277 406.365 111.407 405.875 114.527C405.805 114.987 405.695 119.267 405.875 119.437C405.915 119.477 406.705 119.407 406.975 119.467C408.225 119.747 408.195 121.567 406.715 121.717C405.975 121.787 404.035 121.877 403.685 121.097C403.785 117.287 402.425 112.727 406.425 110.527C407.195 110.107 408.045 110.277 407.615 109.147C405.465 110.187 402.415 110.327 402.265 113.327L401.035 123.367H401.015ZM427.315 116.287C425.425 116.617 425.615 119.477 427.445 119.727C430.065 120.087 430.185 115.787 427.315 116.287Z" fill="white"/>
<path d="M391.095 80.9368V84.7168H399.495C399.835 84.7168 401.265 85.1168 401.685 85.2568C402.735 85.5968 405.885 87.0668 404.935 88.4968C404.085 89.7768 402.255 87.8468 401.165 87.4468C400.215 87.0968 399.225 86.9268 398.215 86.9968V93.8068C402.455 94.9168 402.755 100.927 398.555 102.397C392.645 104.477 389.805 95.3068 395.935 93.8068V86.9968H390.405C390.115 86.9968 386.675 90.4368 386.095 90.8568V104.707H399.035C399.135 104.707 399.725 105.177 399.785 105.317C400.165 106.147 399.585 106.917 398.735 106.987H363.155C362.455 107.027 361.905 106.547 361.875 105.847C362.515 99.2468 359.625 90.7168 366.135 86.3368C367.025 85.7368 369.405 84.7368 370.435 84.7368H378.835V81.0268C377.645 80.1368 376.645 79.0468 375.835 77.8168C375.595 77.4568 375.345 76.6368 375.115 76.4168C374.575 75.8868 373.335 75.8568 372.395 74.7468C370.815 72.8868 371.385 71.9268 371.415 69.8368C371.505 63.3268 370.025 56.5068 376.515 52.5268C379.885 50.4568 387.105 50.2568 390.825 51.3268C399.955 53.9568 398.815 63.9468 398.825 71.4868C398.825 73.2068 397.775 74.9368 396.285 75.7668C395.905 75.9768 395.045 76.1868 394.875 76.3268C394.735 76.4468 394.385 77.4268 394.175 77.7468C393.435 78.9468 392.375 80.3168 391.085 80.9368H391.095ZM396.395 67.3068V60.7268C396.395 57.5868 392.775 54.0668 389.855 53.3468C387.835 52.8468 381.465 52.8668 379.515 53.5368C376.595 54.5468 373.545 57.9668 373.545 61.1868V67.3168C374.765 67.0468 374.115 66.1668 374.445 65.1168C374.725 64.2368 375.315 63.9168 376.185 63.8368C378.825 63.5868 381.805 64.0568 384.485 63.8068C386.315 62.8868 387.645 59.8168 390.045 60.8868C391.195 61.4068 391.505 62.6768 391.405 63.8368H394.355C394.855 63.8368 395.555 64.7768 395.635 65.2868C395.785 66.2368 395.185 67.0468 396.405 67.3168L396.395 67.3068ZM384.505 66.0968H376.555V73.2868C376.555 73.7068 377.015 75.0568 377.195 75.5168C379.435 81.2568 387.125 82.5668 391.245 77.9768C394.345 74.5268 393.135 70.3368 393.365 66.0868H390.715C390.625 66.0868 389.935 65.7368 389.805 65.6368C388.905 64.9168 389.225 63.8868 389.055 62.9068C387.575 63.8668 386.365 65.8368 384.515 66.0868L384.505 66.0968ZM374.285 72.9868C374.205 71.8768 374.345 70.6968 374.285 69.5768C373.055 70.6168 373.165 72.4868 374.365 73.5068C374.615 73.3768 374.295 73.0768 374.285 72.9768V72.9868ZM395.635 73.3668C396.935 72.5268 396.815 70.4568 395.635 69.5868V73.3668ZM388.825 82.2968C386.265 83.2568 383.665 83.2168 381.105 82.2968V85.3968L384.965 88.7768C385.395 88.3168 388.825 85.6568 388.825 85.3968V82.2968ZM373.385 86.9868H370.435C367.875 86.9868 364.155 90.5468 364.155 93.1168V104.697H383.835V90.6168C383.835 90.6168 383.585 90.5968 383.455 90.4668C382.225 89.2668 380.875 88.1968 379.665 86.9768H375.655C375.735 87.3968 375.515 88.5068 375.725 88.8068C375.775 88.8768 376.955 89.2168 377.275 89.3768C378.775 90.1168 380.205 91.9468 380.465 93.6068C380.845 96.0268 380.285 99.2068 380.465 101.717C380.165 102.737 375.915 102.937 375.805 101.287C375.725 99.9868 377.535 100.107 378.375 100.167V94.6468C378.375 91.7568 374.755 89.9468 372.325 91.6268C371.815 91.9868 370.655 93.4568 370.655 94.0368V100.167C371.425 100.227 372.815 99.8568 373.045 100.887C373.275 101.917 372.695 102.337 371.785 102.437C370.875 102.537 368.785 102.637 368.445 101.537C368.565 97.4668 367.175 92.0868 371.355 89.6068C371.775 89.3568 373.285 88.8868 373.345 88.7968C373.485 88.5768 373.285 87.3768 373.365 86.9968L373.385 86.9868ZM395.385 99.7968C397.285 101.697 400.465 99.1968 398.965 96.8968C397.075 93.9868 393.015 97.4368 395.385 99.7968Z" fill="white"/>
<text fill="white" xml:space="preserve" style="white-space: pre" font-family="Jost" font-size="16" font-weight="500" letter-spacing="0em"><tspan x="358.838" y="146.198">EQUIPE DE </tspan><tspan x="345.213" y="168.198">ENFERMAGEM</tspan></text>
<path d="M338.659 357.69C331.349 362.95 323.199 367.29 314.299 370.46C303.299 374.37 292.069 376.19 281.029 376.13L279.689 555.38C309.959 555.21 340.689 550.06 370.789 539.36C400.879 528.66 427.969 513.25 451.549 494.28L338.669 357.7L338.659 357.69Z" fill="#29C3F1"/>
<path d="M367.563 456.537C368.923 456.697 370.493 457.587 371.583 458.377C371.743 456.397 371.153 454.457 370.243 452.727C369.813 451.907 368.693 450.967 369.203 449.997C369.523 449.377 370.123 449.217 370.783 449.377C371.693 449.587 372.853 452.497 373.353 453.297C375.303 450.497 379.023 449.827 382.233 450.357C383.863 450.627 384.383 450.737 384.303 452.537C384.233 453.987 383.753 455.657 383.163 456.977C388.263 458.507 388.703 465.297 388.393 469.757C387.963 475.787 383.063 485.247 375.683 482.747C374.963 482.507 373.863 481.677 373.213 481.697C372.733 481.717 371.753 482.427 371.193 482.647C370.003 483.107 368.703 483.237 367.423 483.087C366.793 483.017 365.723 482.407 365.433 482.407C364.973 482.407 364.083 483.247 363.463 483.107H319.233C317.613 482.967 316.203 481.557 316.053 479.927C315.833 477.517 315.893 473.317 316.053 470.877C316.283 467.477 317.873 464.307 319.963 461.707C318.073 459.357 316.973 456.437 317.183 453.377C317.393 450.317 319.193 447.967 319.683 444.997C319.883 443.747 320.053 441.327 319.863 440.107C319.753 439.397 318.973 439.277 318.453 438.827C316.813 437.397 316.773 434.727 318.453 433.307C318.743 433.067 319.483 432.827 319.563 432.587C319.713 432.147 319.643 430.427 319.733 429.787C321.413 416.667 333.653 408.347 346.573 411.277C356.253 413.467 363.453 422.607 363.093 432.587C365.563 433.527 366.423 436.887 364.443 438.757C364.173 439.007 363.073 439.527 363.023 439.597C362.773 439.987 362.783 442.467 362.813 443.057C363.093 447.887 366.403 451.587 365.353 456.547C366.053 456.607 366.863 456.467 367.543 456.547L367.563 456.537ZM360.563 432.377C360.873 423.527 354.253 415.377 345.623 413.637C333.863 411.257 322.853 419.217 322.133 431.317C322.123 431.547 322.023 432.287 322.283 432.377C322.833 430.817 322.813 428.777 323.313 427.257C323.383 427.037 323.443 426.887 323.623 426.717C324.053 426.327 327.393 425.447 328.313 425.047C331.033 423.877 333.383 422.227 334.973 419.697C335.323 419.147 335.383 418.257 336.123 418.027C337.503 417.597 337.783 418.917 338.533 419.737C342.483 424.057 348.323 425.387 354.013 425.317C354.833 425.317 355.743 424.917 356.533 425.327C356.853 425.497 357.743 426.727 358.013 427.097C358.843 428.247 359.533 429.487 360.123 430.777L360.573 432.367L360.563 432.377ZM357.603 431.387C357.773 431.247 355.553 427.837 355.243 427.737C355.063 427.677 352.953 427.877 352.433 427.867C347.873 427.767 342.773 426.447 339.103 423.677C338.273 423.047 337.613 422.257 336.773 421.647C334.113 425.297 329.953 427.477 325.663 428.627C325.553 428.837 325.013 431.577 325.173 431.527C326.253 431.227 327.983 430.127 329.003 429.987C331.343 429.667 335.243 429.947 337.753 429.967C338.093 429.967 338.403 430.147 338.723 430.117C339.623 430.037 340.223 429.337 341.713 429.407C342.693 429.457 343.583 430.077 344.113 430.117C347.183 430.307 350.613 429.567 353.703 429.997C354.313 430.077 357.353 431.597 357.603 431.397V431.387ZM342.473 432.107C339.643 431.527 340.403 432.337 340.223 434.277C339.593 440.997 329.233 441.737 327.223 435.697C327.073 435.247 326.933 433.717 326.723 433.647C326.423 433.557 325.023 434.367 324.563 434.367C324.543 445.917 335.193 452.427 345.993 449.937C352.973 448.327 358.653 441.697 358.153 434.377L355.913 433.507C356.033 436.647 353.473 439.477 350.333 439.727C345.133 440.137 342.233 437.297 342.473 432.107ZM337.683 432.517H329.343C329.183 436.047 330.953 437.447 334.363 437.187C336.903 436.987 337.973 434.867 337.673 432.517H337.683ZM353.363 432.517H345.023C344.873 436.067 346.603 437.447 350.043 437.187C352.543 436.997 353.673 434.867 353.353 432.517H353.363ZM322.003 434.917C318.933 434.527 318.973 437.777 322.143 437.177L322.003 434.917ZM360.713 434.917V436.967C360.713 436.967 360.503 437.127 360.573 437.177C363.743 437.837 363.903 434.417 360.713 434.917ZM336.553 456.537V452.437C330.543 451.147 325.933 447.177 323.393 441.657C323.153 441.127 322.993 440.367 322.743 439.907C322.653 439.737 322.743 439.667 322.423 439.727C322.533 442.687 322.443 445.377 321.503 448.197C321.133 449.297 320.503 450.307 320.173 451.387C319.273 454.327 319.763 457.637 321.933 459.887C322.843 459.307 323.713 458.627 324.683 458.147C325.273 457.857 326.583 457.517 326.993 457.247C327.183 457.117 327.233 456.837 327.653 456.597C328.363 456.187 332.393 454.567 333.133 454.447C335.063 454.137 335.543 455.227 336.563 456.527L336.553 456.537ZM346.303 452.437V456.397C347.303 455.127 347.883 454.137 349.733 454.457C350.383 454.567 354.473 456.207 355.103 456.577C356.093 457.157 356.613 457.447 357.663 457.977C358.533 458.417 359.323 458.987 360.213 459.377C360.393 458.547 362.343 457.657 362.553 457.277C363.163 456.197 363.053 453.237 362.773 452.017C362.493 450.797 361.783 449.627 361.383 448.457C360.433 445.667 360.043 442.657 360.433 439.737C360.123 439.677 360.113 439.887 360.003 440.087C359.463 441.057 359.113 442.347 358.533 443.417C356.003 447.997 351.423 451.327 346.313 452.457L346.303 452.437ZM381.763 452.857C377.583 451.917 374.183 454.477 374.153 458.767C375.453 459.137 376.873 458.927 378.123 458.467C380.773 457.507 381.243 455.387 381.763 452.857ZM343.753 452.857C342.213 453.067 340.633 453.067 339.093 452.857V460.557C339.093 460.767 341.173 463.517 341.493 463.877C341.573 463.287 343.753 460.627 343.753 460.417V452.857ZM333.543 456.987C333.373 456.987 330.563 458.107 330.293 458.257C330.163 458.327 330.013 458.367 330.073 458.557L336.763 469.947L339.783 466.087C338.983 465.107 334.093 456.967 333.543 456.977V456.987ZM352.793 458.367C352.223 458.277 349.263 456.817 349.003 456.967L343.123 465.857L343.073 466.167L346.093 469.947L352.803 458.367H352.793ZM365.053 459.117C359.823 459.827 360.363 468.917 361.373 472.607C362.193 475.587 364.883 480.597 368.423 480.637C370.193 480.657 370.773 479.757 372.143 479.347C375.123 478.467 376.643 481.737 379.943 480.227C385.443 477.707 387.123 467.117 385.063 462.047C384.603 460.917 383.223 459.017 381.823 459.217C381.673 459.237 380.233 460.347 379.773 460.567C377.553 461.627 375.153 461.497 372.773 461.477C370.833 461.467 369.663 459.727 367.923 459.257C367.063 459.027 365.923 458.987 365.033 459.107L365.053 459.117ZM340.083 469.957C339.183 470.667 337.753 473.447 336.623 473.497C335.593 473.537 335.083 472.187 334.603 471.407C332.253 467.607 330.173 463.607 327.863 459.777C327.803 459.667 327.753 459.677 327.643 459.697C326.453 459.897 324.303 461.257 323.343 462.047C321.463 463.597 319.893 465.847 319.173 468.187C318.383 470.737 318.353 476.757 318.603 479.497C318.633 479.847 318.813 480.547 319.243 480.547H340.083V469.957ZM362.973 480.547C359.093 476.277 357.633 470.657 358.313 464.937C358.383 464.387 359.023 462.007 358.993 461.847C358.883 461.247 355.643 459.797 354.923 459.637C352.443 464.217 349.743 468.727 347.043 473.197C346.533 473.487 345.973 473.637 345.453 473.257L342.623 469.797V480.537H362.963L362.973 480.547Z" fill="white"/>
<path d="M366.063 466.468C366.573 466.938 366.333 467.728 366.393 468.328C366.613 470.448 366.913 472.548 367.653 474.558C367.613 475.758 366.333 476.378 365.463 475.468C364.753 474.728 364.283 472.178 364.143 471.138C364.003 470.098 363.833 468.618 363.843 467.628C363.843 466.418 365.143 465.638 366.063 466.478V466.468Z" fill="white"/>
<path d="M366.073 461.367C367.833 460.977 368.243 463.657 366.573 463.857C364.903 464.057 364.623 461.687 366.073 461.367Z" fill="white"/>
<path d="M347.003 475.777C348.483 475.637 348.873 478.067 347.383 478.287C345.453 478.567 345.403 475.937 347.003 475.777Z" fill="white"/>
<text fill="white" xml:space="preserve" style="white-space: pre" font-family="Jost" font-size="16" font-weight="500" letter-spacing="0em"><tspan x="293.689" y="503.719">NUTRICIONISTA</tspan></text>
<path d="M249.266 185.847C269.196 178.877 289.856 178.747 308.716 184.217L371.026 16.9268C314.046 -3.45322 250.126 -5.43322 188.686 15.4668L249.266 185.847Z" fill="#29C3F1"/>
<path d="M294.086 53.1562C294.136 53.2262 295.116 53.6962 295.506 54.2162C296.976 56.1862 296.686 59.8762 294.786 61.5062C294.296 61.9262 293.036 62.4162 292.976 62.4962C292.896 62.6062 292.476 64.6362 292.306 65.1062C291.726 66.7462 290.576 68.7562 289.416 70.0562C289.136 70.3662 287.946 71.3262 287.896 71.4162C287.606 71.9962 288.536 76.0262 289.106 76.4562L296.576 78.7462C297.316 79.1162 297.156 79.9362 297.276 80.0462C297.376 80.1262 298.606 80.0362 298.936 80.0662C306.536 80.7762 311.996 86.8862 312.466 94.3962C312.676 97.7962 312.786 103.556 312.466 106.886C312.406 107.536 312.226 107.976 311.586 108.246C290.906 108.596 270.156 108.286 249.446 108.396C248.586 108.396 247.826 107.916 247.766 107.036C247.976 102.836 247.506 98.3962 247.766 94.2262C248.256 86.6562 253.786 80.9162 261.296 80.0562C261.716 80.0062 262.406 80.1462 262.716 80.0562C262.856 80.0162 262.946 79.2662 263.126 79.0362C263.656 78.3462 269.896 77.0062 271.106 76.4862C271.536 75.4362 272.606 72.3862 272.176 71.4062C272.046 71.0962 270.706 69.9862 270.346 69.5562C269.506 68.5362 268.646 67.0662 268.136 65.8462C267.876 65.2162 267.236 62.6662 267.056 62.4462C266.896 62.2562 265.916 61.9662 265.546 61.7162C263.476 60.2762 263.146 56.1862 264.606 54.2362C264.856 53.9062 265.546 53.4462 265.556 53.3862C265.586 53.1662 264.046 50.0862 263.826 49.3662C261.956 43.2562 263.446 36.2562 270.346 34.5262C271.106 34.3362 272.476 34.3262 273.056 34.0362C273.356 33.8862 273.776 33.2662 274.106 33.0062C277.506 30.4162 281.336 30.2062 285.346 31.3562C293.716 33.7662 297.126 39.9762 295.356 48.4962C295.206 49.2362 293.906 52.9562 294.046 53.1462L294.086 53.1562ZM292.626 49.9762C294.426 43.5862 293.796 37.6662 287.296 34.5862C283.696 32.8762 279.076 32.0862 275.746 34.7762C275.256 35.1662 274.416 36.3062 273.906 36.4662C273.336 36.6462 272.676 36.4662 272.076 36.5562C265.316 37.4962 264.126 44.5962 266.616 49.9862C266.846 47.9662 267.506 45.9862 268.546 44.2362C269.266 43.0362 271.566 40.1962 273.016 40.2062C273.756 40.2062 274.356 41.0662 274.966 41.4762C278.426 43.8162 280.466 44.1462 284.536 44.2162C287.816 44.2762 289.906 45.1162 291.636 48.0162L292.626 49.9862V49.9762ZM293.546 55.4562C293.046 54.9762 291.396 55.6762 291.056 54.3362C290.496 52.0962 290.716 50.4862 289.096 48.4562C286.996 45.8162 284.846 46.8262 281.976 46.6062C278.736 46.3662 275.326 44.8262 272.846 42.7762C270.226 44.9362 268.886 48.2962 268.766 51.6562C268.716 52.9962 269.496 54.7662 267.846 55.2162C267.256 55.3762 266.796 55.0562 266.386 55.8362C266.006 56.5562 266.076 58.5662 266.456 59.2462C267.086 60.3662 268.626 60.0762 269.096 60.6562C269.436 61.0762 269.606 62.8762 269.806 63.5862C272.756 73.9362 286.306 74.6262 290.016 64.5862C290.396 63.5462 290.596 61.5262 290.946 60.8762C291.486 59.8662 293.056 60.6062 293.766 59.0562C294.166 58.1862 294.256 56.1662 293.536 55.4662L293.546 55.4562ZM285.586 72.8662C282.036 74.4862 278.096 74.3962 274.546 72.8662C274.386 74.6362 273.756 76.2862 273.096 77.9162L274.216 84.9662C278.146 85.5562 282.126 85.3762 286.076 85.0362L287.056 78.0762C286.526 76.3562 285.806 74.6862 285.596 72.8762L285.586 72.8662ZM270.836 79.1162C270.666 79.0562 270.496 79.1162 270.336 79.1362C269.586 79.2762 266.936 80.0662 266.276 80.3662C266.126 80.4362 265.956 80.4562 265.896 80.6362C265.726 81.2062 268.546 85.4462 268.616 86.5362C268.696 87.7462 266.666 88.9362 266.706 89.3862L274.206 101.336L270.826 79.0962L270.836 79.1162ZM294.386 80.5462L289.266 79.1062L285.906 101.516L293.366 89.5162C293.516 88.9062 291.136 87.4262 291.516 86.4062L294.396 80.5462H294.386ZM274.216 105.996L264.206 89.8262C263.226 88.7562 266.066 86.9662 266.026 86.4162C265.616 85.8762 264.306 82.5462 263.976 82.3862C263.606 82.1962 261.686 82.3862 261.206 82.5062C259.296 82.9562 257.846 88.3962 258.046 90.1562C261.416 89.9562 264.456 92.2962 265.206 95.5662C265.746 97.9262 265.696 100.086 262.646 99.2462C261.686 98.9762 261.366 97.7262 262.216 97.1262C262.946 96.5962 263.346 97.2162 262.766 95.6062C260.926 90.4862 253.996 92.3562 254.696 97.5862C254.716 97.7662 255.106 99.0762 255.166 99.1162C255.236 99.1662 256.056 98.4662 256.846 99.1162C257.826 99.9162 257.016 100.876 256.116 101.276C254.466 102.006 253.976 101.776 253.156 100.246C251.306 96.7662 252.536 92.9262 255.776 90.8562C255.656 88.3562 256.076 86.0462 257.086 83.7562C254.266 85.0862 251.876 87.7862 250.886 90.7562C250.706 91.2962 250.206 92.9762 250.206 93.4362V106.006H274.226L274.216 105.996ZM286.066 105.996H310.086V93.4262C310.086 92.8462 309.456 90.7762 309.206 90.1462C307.936 86.9462 305.106 84.3362 301.926 83.0962C302.656 85.0962 303.286 87.1262 303.526 89.2562C303.556 89.5562 303.456 90.4962 303.546 90.5962C303.596 90.6562 304.596 90.9362 304.956 91.1862C308.196 93.4462 307.136 98.8262 303.286 99.2562C297.506 99.9162 296.036 92.3562 301.276 90.5962C301.036 88.5162 300.756 86.3362 299.876 84.4162C299.726 84.0962 298.876 82.5862 298.686 82.4862C298.386 82.3162 296.466 82.1862 296.166 82.3662C295.786 82.5962 294.556 85.8262 294.116 86.3962C294.076 86.8362 296.626 88.6062 296.106 89.4862L286.286 105.446L286.096 105.976L286.066 105.996ZM285.586 87.4262C285.006 87.3262 284.456 87.5762 283.916 87.5962C281.356 87.6862 278.776 87.6862 276.216 87.5962C275.666 87.5762 275.126 87.3262 274.546 87.4262L277.266 105.996H282.866L285.586 87.4262ZM301.866 92.9062C299.486 93.3962 300.146 97.3562 302.746 96.9962C305.346 96.6362 305.036 92.2462 301.866 92.9062Z" fill="white"/>
<text fill="white" xml:space="preserve" style="white-space: pre" font-family="Jost" font-size="16" font-weight="500" letter-spacing="0em"><tspan x="249.114" y="128.978">M&#xc9;DICO</tspan></text>
</svg>
